<?xml version="1.0" encoding="utf-8"?>
<!-- Generator: Adobe Illustrator 19.0.0, SVG Export Plug-In . SVG Version: 6.00 Build 0)  -->
<svg version="1.1" id="Layer_1" xmlns="http://www.w3.org/2000/svg" xmlns:xlink="http://www.w3.org/1999/xlink" x="0px" y="0px"
	 viewBox="0 0 432 134.2" width="432px" height="134.2px" style="enable-background:new 0 0 432 134.2;" xml:space="preserve">
<style type="text/css">
	.st0{fill:#EBEDEE;}
</style>
<polygon id="XMLID_428_" class="st0" points="396,116.2 387,105.2 393,105.2 384,95.2 390,95.2 379.4,83.8 369,95.2 375,95.2 
	366,105.2 372,105.2 363,116.2 378,116.2 378,134.2 380,134.2 380,116.2 "/>
<polygon id="XMLID_427_" class="st0" points="432,121.2 426,114.2 430,114.2 424,107.2 428,107.2 419.9,98.3 412,107.2 416,107.2 
	410,114.2 414,114.2 408,121.2 419,121.2 419,133.2 421,133.2 421,121.2 "/>
<path id="XMLID_256_" class="st0" d="M65,77.2v-35H27v53.1L0,95.2V133l32,0.2V133h33v0.2h27v-56H65z M12,126.2H8v-4h4V126.2z
	 M12,117.2H8v-4h4V117.2z M12,108.2H8v-4h4V108.2z M21,126.2h-4v-4h4V126.2z M21,117.2h-4v-4h4V117.2z M21,108.2h-4v-4h4V108.2z
	 M30,126.2h-3h-1v-4h1h3V126.2z M30,117.2h-3h-1v-4h1h3V117.2z M30,108.2h-3h-1v-4h1h3V108.2z M39,126.2h-4v-4h4V126.2z M39,117.2
	h-4v-4h4V117.2z M39,108.2h-4v-4h4V108.2z M39,99.2h-4v-4h4V99.2z M39,90.2h-4v-4h4V90.2z M39,81.2h-4v-4h4V81.2z M39,72.2h-4v-4h4
	V72.2z M39,63.2h-4v-4h4V63.2z M39,54.2h-4v-4h4V54.2z M48,126.2h-4v-4h4V126.2z M48,117.2h-4v-4h4V117.2z M48,108.2h-4v-4h4V108.2z
	 M48,99.2h-4v-4h4V99.2z M48,90.2h-4v-4h4V90.2z M48,81.2h-4v-4h4V81.2z M48,72.2h-4v-4h4V72.2z M48,63.2h-4v-4h4V63.2z M48,54.2h-4
	v-4h4V54.2z M57,126.2h-4v-4h4V126.2z M57,117.2h-4v-4h4V117.2z M57,108.2h-4v-4h4V108.2z M57,99.2h-4v-4h4V99.2z M57,90.2h-4v-4h4
	V90.2z M57,81.2h-4v-4h4V81.2z M57,72.2h-4v-4h4V72.2z M57,63.2h-4v-4h4V63.2z M57,54.2h-4v-4h4V54.2z M66,126.2h-4v-4h4V126.2z
	 M66,117.2h-4v-4h4V117.2z M66,108.2h-4v-4h4V108.2z M66,99.2h-4v-4h4V99.2z M66,90.2h-4v-4h4V90.2z M75,126.2h-4v-4h4V126.2z
	 M75,117.2h-4v-4h4V117.2z M75,108.2h-4v-4h4V108.2z M75,99.2h-4v-4h4V99.2z M75,90.2h-4v-4h4V90.2z M84,126.2h-4v-4h4V126.2z
	 M84,117.2h-4v-4h4V117.2z M84,108.2h-4v-4h4V108.2z M84,99.2h-4v-4h4V99.2z M84,90.2h-4v-4h4V90.2z"/>
<path id="XMLID_2529_" class="st0" d="M155,24.2v-5h-5v-5h-7V0h-4v14.2h-7v5h-5v5h-5V133h38V24.2H155z M134,126.2h-4v-4h4V126.2z
	 M134,117.2h-4v-4h4V117.2z M134,108.2h-4v-4h4V108.2z M134,99.2h-4v-4h4V99.2z M134,90.2h-4v-4h4V90.2z M134,81.2h-4v-4h4V81.2z
	 M134,72.2h-4v-4h4V72.2z M134,63.2h-4v-4h4V63.2z M134,54.2h-4v-4h4V54.2z M134,45.2h-4v-4h4V45.2z M134,36.2h-4v-4h4V36.2z
	 M143,126.2h-4v-4h4V126.2z M143,117.2h-4v-4h4V117.2z M143,108.2h-4v-4h4V108.2z M143,99.2h-4v-4h4V99.2z M143,90.2h-4v-4h4V90.2z
	 M143,81.2h-4v-4h4V81.2z M143,72.2h-4v-4h4V72.2z M143,63.2h-4v-4h4V63.2z M143,54.2h-4v-4h4V54.2z M143,45.2h-4v-4h4V45.2z
	 M143,36.2h-4v-4h4V36.2z M152,126.2h-4v-4h4V126.2z M152,117.2h-4v-4h4V117.2z M152,108.2h-4v-4h4V108.2z M152,99.2h-4v-4h4V99.2z
	 M152,90.2h-4v-4h4V90.2z M152,81.2h-4v-4h4V81.2z M152,72.2h-4v-4h4V72.2z M152,63.2h-4v-4h4V63.2z M152,54.2h-4v-4h4V54.2z
	 M152,45.2h-4v-4h4V45.2z M152,36.2h-4v-4h4V36.2z"/>
<path id="XMLID_480_" class="st0" d="M180,48.2v7h4V133l63,0.3V55.2h4v-7H180z M224,57.2h4v4h-4V57.2z M224,67.2h4v4h-4V67.2z
	 M224,77.2h4v4h-4V77.2z M224,87.2h4v4h-4V87.2z M224,98.2h4v4h-4V98.2z M213,57.2h4v4h-4V57.2z M213,67.2h4v4h-4V67.2z M213,77.2h4
	v4h-4V77.2z M213,87.2h4v4h-4V87.2z M213,98.2h4v4h-4V98.2z M202,57.2h4v4h-4V57.2z M202,67.2h4v4h-4V67.2z M202,77.2h4v4h-4V77.2z
	 M202,87.2h4v4h-4V87.2z M202,98.2h4v4h-4V98.2z M195,102.2h-4v-4h4V102.2z M195,91.2h-4v-4h4V91.2z M195,81.2h-4v-4h4V81.2z
	 M195,71.2h-4v-4h4V71.2z M195,61.2h-4v-4h4V61.2z M214,133h-13v-24.8h13V133z M229,133h-13v-24.8h13V133z M239,102.2h-4v-4h4V102.2
	z M239,91.2h-4v-4h4V91.2z M239,81.2h-4v-4h4V81.2z M239,71.2h-4v-4h4V71.2z M239,61.2h-4v-4h4V61.2z"/>
<path id="XMLID_107_" class="st0" d="M274,80.2v25h5v28.1l57.9,0l0.1-28.1h5v-25H274z M295,119.2h-11v-10h11V119.2z M307,133.2h-8
	v-24.1h8V133.2z M316.9,133.2H309v-24.1h7.9V133.2z M332,119.2h-11v-10h11V119.2z"/>
</svg>
