<?xml version="1.0" encoding="utf-8"?>
<!-- Generator: Adobe Illustrator 19.0.0, SVG Export Plug-In . SVG Version: 6.00 Build 0)  -->
<svg version="1.1" id="Layer_1" xmlns="http://www.w3.org/2000/svg" xmlns:xlink="http://www.w3.org/1999/xlink" x="0px" y="0px"
	 viewBox="0 0 432.3 82" width="432.3px" height="82px" style="enable-background:new 0 0 432.3 82;" xml:space="preserve">
<style type="text/css">
	.st0{fill:#EBEDEE;}
</style>
<path id="XMLID_571_" class="st0" d="M104.8,49.8c0-6.5-5.3-16.4-11.8-16.4c-6.5,0-11.8,9.9-11.8,16.4C81.3,55.9,86,61.5,92,62
	l0,19.8h2V62C100,61.5,104.8,55.9,104.8,49.8z"/>
<path id="XMLID_566_" class="st0" d="M174,59h-15c-0.9,0-2,1-2.3,1.9L154,69v11c0,0.8,0.4,1.8,1.2,1.8h1.4c0.8,0,1.4-0.6,1.4-1.4V79
	h17v1c0,0.8,0.4,1.8,1.1,1.8h1.4c0.8,0,1.4-0.6,1.4-1.4L179,69l-3-8.1C175.8,60,174.9,59,174,59z M158.7,74.8
	c-1.2,0-2.1-0.9-2.1-2.1c0-1.2,0.9-2.1,2.1-2.1c1.2,0,2.1,0.9,2.1,2.1C160.8,73.9,159.9,74.8,158.7,74.8z M174.1,74.8
	c-1.2,0-2.1-0.9-2.1-2.1c0-1.2,0.9-2.1,2.1-2.1c1.2,0,2.1,0.9,2.1,2.1C176.1,73.9,175.2,74.8,174.1,74.8z M157,68l1.8-7h15l2.2,7
	H157z"/>
<path id="XMLID_602_" class="st0" d="M58,59L29,34L0,59h8l0.1,23H23V63h13v19h15l0-23H58z M20.1,71L12,71v-8h8L20.1,71z M47,71h-8
	v-8h8V71z"/>
<rect id="XMLID_138_" x="32" y="72" class="st0" width="2" height="2"/>
<path id="XMLID_189_" class="st0" d="M191.9,29.7L191.9,29.7L133,37v9h4l0.1,35.5h3.9l0-35.5h51l0.1,35.8l8.9,0V55h16v26.8l29,0
	l0-35.8h5l0-9L191.9,29.7z M240,64h-16v-9h16V64z"/>
<rect id="XMLID_186_" x="212" y="68" class="st0" width="2" height="2"/>
<path id="XMLID_201_" class="st0" d="M275,0v81.8h38V0H275z M287,75h-4v-4h4V75z M287,66h-4v-4h4V66z M287,57h-4v-4h4V57z M287,48
	h-4v-4h4V48z M287,39h-4v-4h4V39z M287,30h-4v-4h4V30z M287,21h-4v-4h4V21z M287,12h-4V8h4V12z M296,75h-4v-4h4V75z M296,66h-4v-4h4
	V66z M296,57h-4v-4h4V57z M296,48h-4v-4h4V48z M296,39h-4v-4h4V39z M296,30h-4v-4h4V30z M296,21h-4v-4h4V21z M296,12h-4V8h4V12z
	 M305,75h-4v-4h4V75z M305,66h-4v-4h4V66z M305,57h-4v-4h4V57z M305,48h-4v-4h4V48z M305,39h-4v-4h4V39z M305,30h-4v-4h4V30z
	 M305,21h-4v-4h4V21z M305,12h-4V8h4V12z"/>
<path id="XMLID_330_" class="st0" d="M432.3,31H334v7h6v43.8h29V57h13v24.8h2V57h13v24.8h28.9L425.9,38h6.5V31z M350,53h-4v-4h4V53z
	 M350,45h-4v-4h4V45z M360,53h-4v-4h4V53z M360,45h-4v-4h4V45z M370,53h-4v-4h4V53z M370,45h-4v-4h4V45z M380,53h-4v-4h4V53z
	 M380,45h-4v-4h4V45z M390,53h-4v-4h4V53z M390,45h-4v-4h4V45z M400,53h-4v-4h4V53z M400,45h-4v-4h4V45z M410,53h-4v-4h4V53z
	 M410,45h-4v-4h4V45z M420,53h-4v-4h4V53z M420,45h-4v-4h4V45z"/>
<rect id="XMLID_20_" x="378" y="69" class="st0" width="2" height="2"/>
<rect id="XMLID_30_" x="386" y="69" class="st0" width="2" height="2"/>
</svg>
